<svg width="1920" height="1200" viewBox="0 0 1920 1200" fill="none" xmlns="http://www.w3.org/2000/svg">
<g clip-path="url(#clip0)">
<path d="M0 339.494C0 339.494 310.915 34.0113 512.5 21.2682C1068.66 -13.8893 1920 362.5 1920 362.5V1017.5C1920 1017.5 2112.5 1061.84 1512.5 1076.62C912.5 1091.4 0 854.91 0 854.91V339.494Z" fill="#322E6F"/>
<path d="M0 367.5C0 367.5 310.915 86.1349 512.5 73.3917C1068.66 38.2343 1920 388.5 1920 388.5V1069.62C1920 1069.62 2112.5 1113.97 1512.5 1128.75C912.5 1143.53 0 907.033 0 907.033V367.5Z" fill="#2D2965"/>
<path d="M-9.62415 386.5C-9.62415 386.5 310.726 153.314 512.268 140.762C1068.31 106.13 1919.47 408.665 1919.47 408.665V1039C1919.47 1039 2099.38 1128 1512.06 1180.34C912.184 1194.91 -0.624146 1039 -0.624146 1039L-9.62415 386.5Z" fill="#252254"/>
</g>
<defs>
<clipPath id="clip0">
<rect width="1920" height="1200" fill="white"/>
</clipPath>
</defs>
</svg>
