<svg width="320" height="950" viewBox="0 0 320 950" fill="none" xmlns="http://www.w3.org/2000/svg">
<g clip-path="url(#clip0)">
<path d="M-3.99998 111C-9.99999 93.284 45.9504 37.0044 146 29C237.571 21.674 307.278 79.3517 318.436 89.1804C319.47 90.0918 320 91.3721 320 92.7508V831.07C320 834.481 316.661 836.891 313.424 835.816L3.43582 732.845C1.38579 732.164 0.00362039 730.62 0.0102985 728.46C0.157081 680.98 1.74229 127.955 -3.99998 111Z" fill="#322E6F"/>
<path d="M0.999939 139C0.999905 117 50.9504 70.0044 151 62C241.822 54.7339 307.841 103.996 319.246 113.145C320.378 114.053 321 115.424 321 116.874V855.07C321 858.481 317.661 860.891 314.424 859.816L4.42377 756.841C2.37953 756.162 0.999965 754.625 0.999965 752.471C0.999965 705.407 0.999971 160.05 0.999939 139Z" fill="#2D2965"/>
<path d="M0.406801 187C0.406806 154 59.307 105.297 158 97C247.543 89.4727 308.78 137.843 319.365 146.877C320.424 147.781 321 149.104 321 150.496V912.033C321 915.144 318.188 917.5 315.125 916.955L4.53154 861.733C2.14518 861.309 0.406801 859.655 0.406801 857.231C0.4068 804.626 0.406797 218.517 0.406801 187Z" fill="#252254"/>
</g>
<defs>
<clipPath id="clip0">
<rect width="320" height="950" fill="white"/>
</clipPath>
</defs>
</svg>
