<svg width="768" height="850" viewBox="0 0 768 850" fill="none" xmlns="http://www.w3.org/2000/svg">
<g clip-path="url(#clip0)">
<path d="M0 81.5227C0 81.5227 124.366 34.0122 205 24.9858C427.464 0.0825776 768 217.63 768 217.63V730.65C768 730.65 845 762.059 605 772.529C365 782.999 0 615.482 0 615.482V81.5227Z" fill="#322E6F"/>
<path d="M0 108.523C0 108.523 124.366 61.0122 205 51.9858C427.464 27.0826 768 244.63 768 244.63V757.65C768 757.65 845 789.059 605 799.529C365 809.999 0 642.482 0 642.482V108.523Z" fill="#2D2965"/>
<path d="M0 151.523C0 151.523 124.366 104.012 205 94.9858C427.464 70.0826 768 287.63 768 287.63V800.65C768 800.65 845 832.059 605 842.529C365 852.999 0 685.482 0 685.482V151.523Z" fill="#252254"/>
</g>
<defs>
<clipPath id="clip0">
<rect width="768" height="850" fill="white"/>
</clipPath>
</defs>
</svg>
